<!DOCTYPE svg PUBLIC "-//W3C//DTD SVG 1.1//EN" "http://www.w3.org/Graphics/SVG/1.1/DTD/svg11.dtd">
<!-- Uploaded to: SVG Repo, www.svgrepo.com, Transformed by: SVG Repo Mixer Tools -->
<svg width="148px" height="148px" viewBox="-2.4 -2.4 28.80 28.80" xmlns="http://www.w3.org/2000/svg" fill="" transform="matrix(-1, 0, 0, 1, 0, 0)" stroke="">
<g id="SVGRepo_bgCarrier" stroke-width="0" transform="translate(1.92,1.92), scale(0.84)">
<path transform="translate(-2.4, -2.4), scale(1.7999999999999998)" fill="#7ed0ec" d="M9.166.33a2.25 2.25 0 00-2.332 0l-5.25 3.182A2.25 2.25 0 00.5 5.436v5.128a2.25 2.25 0 001.084 1.924l5.25 3.182a2.25 2.25 0 002.332 0l5.25-3.182a2.25 2.25 0 001.084-1.924V5.436a2.25 2.25 0 00-1.084-1.924L9.166.33z" strokewidth="0"/>
</g>
<g id="SVGRepo_tracerCarrier" stroke-linecap="round" stroke-linejoin="round" stroke="#CCCCCC" stroke-width="1.6799999999999997"> <defs> <style>.c{fill:none;stroke:#4eb8ff;stroke-linecap:round;stroke-linejoin:round;}.d{fill:#1237a5;}</style> </defs> <g id="a"/> <g id="b"> <circle class="d" cx="12" cy="12" r="10.5"/> <line class="c" x1="4.5" x2="19.5" y1="12" y2="12"/> <line class="c" x1="12" x2="12" y1="4.5" y2="19.5"/> </g> </g>
<g id="SVGRepo_iconCarrier"> <defs> <style>.c{fill:none;stroke:#4eb8ff;stroke-linecap:round;stroke-linejoin:round;}.d{fill:#1237a5;}</style> </defs> <g id="a"/> <g id="b"> <circle class="d" cx="12" cy="12" r="10.5"/> <line class="c" x1="4.5" x2="19.5" y1="12" y2="12"/> <line class="c" x1="12" x2="12" y1="4.5" y2="19.5"/> </g> </g>
</svg>